<svg width="169" height="29" viewBox="0 0 169 29" fill="none" xmlns="http://www.w3.org/2000/svg">
<path d="M21.754 0.791998V27H17.542V15.876H4.65403V27H0.442033V0.791998H4.65403V11.844H17.542V0.791998H21.754ZM75.3158 0.791998L83.5598 21.312L81.1478 20.844L88.8158 0.791998H93.7838L82.0478 28.224L70.3118 0.791998H75.3158Z" fill="#C8102E"/>
<path d="M28.9898 12.096H32.3378V27H28.9898V12.096ZM28.7378 6.696C28.7378 6.168 28.9418 5.724 29.3498 5.364C29.7818 5.004 30.2498 4.824 30.7538 4.824C31.2578 4.824 31.7018 5.004 32.0858 5.364C32.4938 5.724 32.6978 6.168 32.6978 6.696C32.6978 7.248 32.4938 7.704 32.0858 8.064C31.7018 8.4 31.2578 8.568 30.7538 8.568C30.2498 8.568 29.7818 8.388 29.3498 8.028C28.9418 7.668 28.7378 7.224 28.7378 6.696ZM41.8384 12.096L42.1624 16.416L41.9824 15.84C42.3664 14.928 42.9184 14.16 43.6384 13.536C44.3824 12.888 45.1504 12.396 45.9424 12.06C46.7584 11.7 47.4664 11.52 48.0664 11.52L47.8864 14.832C46.7584 14.76 45.7624 14.976 44.8984 15.48C44.0584 15.984 43.3864 16.656 42.8824 17.496C42.4024 18.336 42.1624 19.236 42.1624 20.196V27H38.8504V12.096H41.8384ZM59.3847 27.36C57.6807 27.36 56.2167 27.024 54.9927 26.352C53.7687 25.656 52.8207 24.72 52.1487 23.544C51.5007 22.344 51.1767 20.976 51.1767 19.44C51.1767 17.976 51.5487 16.644 52.2927 15.444C53.0367 14.244 54.0327 13.284 55.2807 12.564C56.5287 11.844 57.9207 11.484 59.4567 11.484C61.4247 11.484 63.0567 12.06 64.3527 13.212C65.6487 14.364 66.5247 15.948 66.9807 17.964L54.7047 22.284L53.9127 20.304L63.9927 16.632L63.2727 17.1C62.9847 16.308 62.5047 15.624 61.8327 15.048C61.1607 14.448 60.2847 14.148 59.2047 14.148C58.2927 14.148 57.4767 14.376 56.7567 14.832C56.0367 15.264 55.4727 15.864 55.0647 16.632C54.6567 17.4 54.4527 18.276 54.4527 19.26C54.4527 20.292 54.6687 21.204 55.1007 21.996C55.5327 22.764 56.1207 23.376 56.8647 23.832C57.6327 24.264 58.4967 24.48 59.4567 24.48C60.1047 24.48 60.7287 24.36 61.3287 24.12C61.9527 23.88 62.5287 23.568 63.0567 23.184L64.6047 25.668C63.8607 26.172 63.0207 26.58 62.0847 26.892C61.1727 27.204 60.2727 27.36 59.3847 27.36ZM98.7369 12.096H102.085V27H98.7369V12.096ZM98.4849 6.696C98.4849 6.168 98.6889 5.724 99.0969 5.364C99.5289 5.004 99.9969 4.824 100.501 4.824C101.005 4.824 101.449 5.004 101.833 5.364C102.241 5.724 102.445 6.168 102.445 6.696C102.445 7.248 102.241 7.704 101.833 8.064C101.449 8.4 101.005 8.568 100.501 8.568C99.9969 8.568 99.5289 8.388 99.0969 8.028C98.6889 7.668 98.4849 7.224 98.4849 6.696ZM112.774 27.288C111.718 27.288 110.686 27.108 109.678 26.748C108.694 26.364 107.878 25.8 107.23 25.056L108.634 23.112C109.258 23.712 109.894 24.168 110.542 24.48C111.214 24.768 111.874 24.912 112.522 24.912C113.002 24.912 113.446 24.852 113.854 24.732C114.262 24.612 114.586 24.42 114.826 24.156C115.09 23.868 115.222 23.484 115.222 23.004C115.222 22.476 115.042 22.056 114.682 21.744C114.346 21.432 113.902 21.18 113.35 20.988C112.822 20.796 112.258 20.616 111.658 20.448C110.434 20.04 109.498 19.476 108.85 18.756C108.202 18.036 107.878 17.16 107.878 16.128C107.878 15.336 108.07 14.604 108.454 13.932C108.862 13.236 109.45 12.672 110.218 12.24C111.01 11.808 111.982 11.592 113.134 11.592C114.166 11.592 115.09 11.724 115.906 11.988C116.722 12.228 117.49 12.636 118.21 13.212L116.878 15.3C116.446 14.844 115.93 14.508 115.33 14.292C114.73 14.076 114.19 13.956 113.71 13.932C113.302 13.908 112.906 13.968 112.522 14.112C112.162 14.256 111.862 14.46 111.622 14.724C111.382 14.988 111.262 15.3 111.262 15.66C111.262 16.164 111.43 16.572 111.766 16.884C112.102 17.196 112.534 17.448 113.062 17.64C113.614 17.808 114.154 17.988 114.682 18.18C115.426 18.396 116.086 18.684 116.662 19.044C117.238 19.404 117.694 19.848 118.03 20.376C118.39 20.904 118.57 21.564 118.57 22.356C118.57 23.244 118.354 24.072 117.922 24.84C117.514 25.584 116.878 26.184 116.014 26.64C115.174 27.072 114.094 27.288 112.774 27.288ZM123.978 12.096H127.326V27H123.978V12.096ZM123.726 6.696C123.726 6.168 123.93 5.724 124.338 5.364C124.77 5.004 125.238 4.824 125.742 4.824C126.246 4.824 126.69 5.004 127.074 5.364C127.482 5.724 127.686 6.168 127.686 6.696C127.686 7.248 127.482 7.704 127.074 8.064C126.69 8.4 126.246 8.568 125.742 8.568C125.238 8.568 124.77 8.388 124.338 8.028C123.93 7.668 123.726 7.224 123.726 6.696ZM132.542 19.404C132.542 17.916 132.89 16.572 133.586 15.372C134.306 14.172 135.29 13.224 136.538 12.528C137.786 11.832 139.202 11.484 140.786 11.484C142.418 11.484 143.846 11.832 145.07 12.528C146.294 13.224 147.242 14.172 147.914 15.372C148.586 16.572 148.922 17.916 148.922 19.404C148.922 20.892 148.586 22.248 147.914 23.472C147.242 24.672 146.282 25.62 145.034 26.316C143.81 27.012 142.382 27.36 140.75 27.36C139.166 27.36 137.75 27.036 136.502 26.388C135.278 25.716 134.306 24.792 133.586 23.616C132.89 22.416 132.542 21.012 132.542 19.404ZM135.89 19.44C135.89 20.4 136.106 21.276 136.538 22.068C136.97 22.836 137.546 23.448 138.266 23.904C139.01 24.36 139.826 24.588 140.714 24.588C141.65 24.588 142.478 24.36 143.198 23.904C143.942 23.448 144.518 22.836 144.926 22.068C145.334 21.276 145.538 20.4 145.538 19.44C145.538 18.48 145.334 17.616 144.926 16.848C144.518 16.056 143.942 15.432 143.198 14.976C142.478 14.496 141.65 14.256 140.714 14.256C139.802 14.256 138.974 14.496 138.23 14.976C137.51 15.456 136.934 16.092 136.502 16.884C136.094 17.652 135.89 18.504 135.89 19.44ZM157.164 12.096L157.452 15.732L157.308 15.156C157.788 14.052 158.568 13.176 159.648 12.528C160.728 11.856 161.976 11.52 163.392 11.52C164.808 11.52 165.96 11.94 166.848 12.78C167.76 13.596 168.228 14.664 168.252 15.984V27H164.868V17.172C164.844 16.356 164.604 15.696 164.148 15.192C163.716 14.664 163.032 14.4 162.096 14.4C161.232 14.4 160.452 14.64 159.756 15.12C159.06 15.6 158.508 16.26 158.1 17.1C157.716 17.94 157.524 18.912 157.524 20.016V27H154.176V12.096H157.164Z" fill="white"/>
</svg>
