<svg xmlns="http://www.w3.org/2000/svg" xmlns:xlink="http://www.w3.org/1999/xlink" width="1007.5px" height="146px">
  <g>
    <g>
      <path d="M370.7,47.9h7.6v52.5h-7.6V47.9z" />
      <path
        d="M423,78v22.5h-7V79.5c0-6.7-3.3-10.7-9.3-10.7s-10.3,4.5-10.3,10.9v20.8h-7V63.2h7v5.3c2.4-3.9,7-6.1,12.5-6.1 C417.9,62.4,423,67.9,423,78z" />
      <path
        d="M468,78v22.5h-7V79.5c0-6.7-3.3-10.7-9.3-10.7s-10.3,4.5-10.3,10.9v20.8h-7V63.2h7v5.3c2.4-3.9,7-6.1,12.5-6.1 C462.9,62.4,468,67.9,468,78z" />
      <path
        d="M475,81.8c0-11.2,8.2-19.4,19.6-19.4c11.6,0,19.6,8.1,19.6,19.4c0,11.3-8,19.4-19.6,19.4C483.2,101.2,475,93.1,475,81.8z  M507,81.8c0-7.6-5.1-12.8-12.4-12.8c-7.3,0-12.4,5.2-12.4,12.8c0,7.7,5.3,12.8,12.4,12.8C502,94.6,507,89.4,507,81.8z" />
      <path d="M553.9,63.2l-16.2,37.3h-4.8l-16.4-37.3h7.8l11,27.3l11.2-27.3H553.9z" />
      <path
        d="M594.2,63.2v37.4h-7V94c-3,5.1-7.8,7.3-13.5,7.3c-10.5,0-18-8.1-18-19.3c0-11.4,7.5-19.5,18-19.5c5.8,0,10.9,2.4,13.5,7.1 v-6.4H594.2z M587.5,81.8c0-7.4-5.4-12.9-12.6-12.9c-7.1,0-12.1,5.2-12.1,13c0,7.6,4.8,12.8,12,12.8 C582.1,94.7,587.5,89.1,587.5,81.8z" />
      <path
        d="M607.4,86.3V69.3h-6.4v-6.1h6.4V52.4l7-2.3v13h10.5v6.1h-10.5v16c0,6.5,2.7,9.3,8.8,9.3h1l-1.1,6.4h-0.2 C612.3,101.1,607.4,96.5,607.4,86.3z" />
      <path
        d="M631.7,51.2c0-2.7,2.1-4.7,4.7-4.7s4.7,2.1,4.7,4.7s-2,4.7-4.7,4.7S631.7,53.8,631.7,51.2z M632.8,63.2h7v37.3h-7V63.2z" />
      <path
        d="M647.1,81.8c0-11.2,8.2-19.4,19.6-19.4c11.6,0,19.6,8.1,19.6,19.4c0,11.3-8,19.4-19.6,19.4 C655.3,101.2,647.1,93.1,647.1,81.8z M679.2,81.8c0-7.6-5.1-12.8-12.4-12.8c-7.3,0-12.4,5.2-12.4,12.8c0,7.7,5.3,12.8,12.4,12.8 C674.1,94.6,679.2,89.4,679.2,81.8z" />
      <path
        d="M727.3,78v22.5h-7V79.5c0-6.7-3.3-10.7-9.3-10.7s-10.3,4.5-10.3,10.9v20.8h-7V63.2h7v5.3c2.4-3.9,7-6.1,12.5-6.1 C722.2,62.4,727.3,67.9,727.3,78z" />
      <path
        d="M753.3,95.1l4-6c3.5,3.2,8.6,5.3,14.1,5.3c6.1,0,9.7-2.8,9.7-8c0-5.3-4.2-6.9-11.4-9.4c-6.8-2.3-14.4-5.5-14.4-14.9 c0-9.2,7-14.9,17.3-14.9c5.9,0,10.4,1.7,14.4,4.3l-3.6,6.2c-2.9-2-6.7-3.6-11-3.6c-6,0-9.7,2.8-9.7,7.7c0,5,4.1,6.7,10.9,9 c7.8,2.7,14.9,5.4,14.9,15.1c0,9.8-7.3,15.4-17.8,15.4C763.6,101.2,757.4,98.7,753.3,95.1z" />
      <path
        d="M797.3,86.3V69.3h-6.4v-6.1h6.4V52.4l7-2.3v13h10.5v6.1h-10.5v16c0,6.5,2.7,9.3,8.8,9.3h1l-1.1,6.4h-0.2 C802.3,101.1,797.3,96.5,797.3,86.3z" />
      <path
        d="M854.6,63.2v37.3h-7v-5.6c-2.5,3.9-6.9,6.3-12.4,6.3c-9,0-14.3-5.2-14.3-15.4V63.2h7V84c0,7.1,3.3,10.9,9,10.9 c6.2,0,10.7-4.5,10.7-11.1V63.2H854.6z" />
      <path
        d="M900.4,44.8v55.7h-7V94c-3,5.1-7.8,7.3-13.5,7.3c-10.5,0-18-8.1-18-19.3c0-11.4,7.5-19.5,18-19.5c5.8,0,10.9,2.4,13.5,7.1 V44.8H900.4z M893.8,81.8c0-7.4-5.4-12.9-12.6-12.9c-7.1,0-12.1,5.2-12.1,13c0,7.6,4.8,12.8,12,12.8 C888.4,94.7,893.8,89.1,893.8,81.8z" />
      <path
        d="M909.3,51.2c0-2.7,2.1-4.7,4.7-4.7s4.7,2.1,4.7,4.7s-2,4.7-4.7,4.7S909.3,53.8,909.3,51.2z M910.4,63.2h7v37.3h-7V63.2z" />
      <path
        d="M924.7,81.8c0-11.2,8.2-19.4,19.6-19.4c11.6,0,19.6,8.1,19.6,19.4c0,11.3-8,19.4-19.6,19.4 C932.9,101.2,924.7,93.1,924.7,81.8z M956.7,81.8c0-7.6-5.1-12.8-12.4-12.8c-7.3,0-12.4,5.2-12.4,12.8c0,7.7,5.3,12.8,12.4,12.8 C951.7,94.6,956.7,89.4,956.7,81.8z" />
    </g>
    <g>
      <path d="M234.4,72.5l21.3,27.4h-15.3l-19.5-25.6v25.6h-12.8V47.6h12.8V71l18.9-23.3H255L234.4,72.5z" />
      <polygon
        points="274.3,89.1 299.2,89.1 299.2,99.8 261.5,99.8 261.5,47.6 298,47.6 298,58.4 274.3,58.4 274.3,67.9 295.7,67.9 295.7,78.4 274.3,78.4" />
      <polygon points="304.4,47.6 304.4,58.4 320.3,58.4 320.3,99.8 333.1,99.8 333.1,58.4 348.9,58.4 348.9,47.6" />
      <polygon points="304.4,47.6 304.4,58.4 320.3,58.4 320.3,99.8 333.1,99.8 333.1,58.4 348.9,58.4 348.9,47.6" />
      <g>
        <path
          d="M74.2,79.8l15.7,20.1H75.1L56.4,74.7v25.2H43.6V47.6h23.5c11.2,0,19,6.9,19,16.9C86.1,71.6,81.5,78.1,74.2,79.8z  M73.4,64.7c0-3.9-3.1-6.6-7.5-6.6h-9.4v13.2h9.4C70.4,71.3,73.4,68.7,73.4,64.7z" />
      </g>
      <g>
        <path fill="#c8102e"
          d="M120.8,58c9.4,0,16.8,7.2,16.8,17.1c0,7.8-3.9,12.5-9.1,16l7.2,9.6c8.9-6.1,14.5-14.5,14.5-25.6 c0-16.4-13-28.3-29.4-28.3s-29.4,12-29.4,28.3c0,11.1,5.6,19.5,14.5,25.6l7.2-9.6c-5.2-3.5-9.1-8.2-9.1-16 C104.1,65.2,111.4,58,120.8,58z" />
        <path
          d="M195.2,85.4l6.7,9.1c-4.9,4.3-10.9,6.2-18.4,6.2c-14.7,0-27.4-10.7-27.4-27.1c0-16,12.6-26.9,27.4-26.9 c7.1,0,13.5,1.8,18.3,5.7l-7,9.5c-2.8-2.2-6.2-3.9-11.3-3.9c-8.1,0-14.6,6.4-14.6,15.9c0,9.3,6.5,15.6,14.8,15.6 C188.8,89.5,192.3,87.6,195.2,85.4z" />
      </g>
    </g>
  </g>
</svg>